<?xml version="1.0" encoding="UTF-8" standalone="no"?>
<svg width="4px" height="736px" viewBox="0 0 4 736" version="1.1" xmlns="http://www.w3.org/2000/svg" xmlns:xlink="http://www.w3.org/1999/xlink">
    <!-- Generator: Sketch 39 (31667) - http://www.bohemiancoding.com/sketch -->
    <title>Path 37</title>
    <desc>Created with Sketch.</desc>
    <defs></defs>
    <g id="Page-1" stroke="none" stroke-width="1" fill="none" fill-rule="evenodd">
        <g id="iPhone-6-Plus-Copy-3" transform="translate(-8.000000, 0.000000)" stroke="#0078FF">
            <path d="M9.38044244,0 C8.44790636,67.1949715 8.64689116,54.8384883 9.23872809,191.802165 C9.30240026,206.537263 9.21157982,218.699917 9.35554654,233.399797 C9.4163511,239.608313 10.2571576,240.830397 10.2491127,247.058591 C10.2343434,258.492696 11.0953015,319.871541 11.1217243,336.10139 C11.1447065,350.217922 10.3311227,365.328326 10.3382718,379.439834 C10.3468926,396.456475 9.23814335,404.474722 9.22145651,421.507257 C9.20479213,438.516868 10.2923313,464.529142 10.2685249,481.541317 C10.2457849,497.791322 9.3885605,514.041238 9.3506197,530.28866 C9.3214983,542.759338 10.1156549,555.228547 10.0731602,567.695198 C10.0393572,577.611976 9.89506329,587.255359 9.75887815,597.117426 C9.56365613,611.254744 9.41987488,625.443373 9.33320432,639.647823 C9.27787889,648.715117 9.10379575,657.985451 9.33320432,666.881171 C9.36648819,668.171812 10.0030667,683.350818 9.93795309,689.071307 C9.75988107,704.71564 9.82347129,720.128569 9.38007331,735.6572" id="Path-37"></path>
        </g>
    </g>
</svg>